<svg width="31" height="30" viewBox="0 0 31 30" fill="none" xmlns="http://www.w3.org/2000/svg">
<path d="M6.75 16.25H20.7125L14.6125 22.35C14.125 22.8375 14.125 23.6375 14.6125 24.125C15.1 24.6125 15.8875 24.6125 16.375 24.125L24.6125 15.8875C24.7284 15.7718 24.8203 15.6345 24.883 15.4833C24.9458 15.332 24.9781 15.1699 24.9781 15.0062C24.9781 14.8425 24.9458 14.6804 24.883 14.5292C24.8203 14.378 24.7284 14.2406 24.6125 14.125L16.3875 5.87497C16.2718 5.75925 16.1344 5.66745 15.9832 5.60482C15.832 5.54218 15.6699 5.50995 15.5063 5.50995C15.3426 5.50995 15.1805 5.54218 15.0293 5.60482C14.8781 5.66745 14.7407 5.75925 14.625 5.87497C14.5093 5.9907 14.4175 6.12809 14.3548 6.2793C14.2922 6.4305 14.26 6.59256 14.26 6.75622C14.26 6.91989 14.2922 7.08195 14.3548 7.23315C14.4175 7.38436 14.5093 7.52175 14.625 7.63747L20.7125 13.75H6.75C6.0625 13.75 5.5 14.3125 5.5 15C5.5 15.6875 6.0625 16.25 6.75 16.25Z" fill="#27082B"/>
</svg>
