<svg width="31" height="35" viewBox="0 0 31 35" fill="none" xmlns="http://www.w3.org/2000/svg">
<path d="M20.505 16.625C20.505 17.6925 19.7175 18.5675 18.72 18.5675C17.74 18.5675 16.935 17.6925 16.935 16.625C16.935 15.5575 17.7225 14.6825 18.72 14.6825C19.7175 14.6825 20.505 15.5575 20.505 16.625ZM12.3325 14.6825C11.335 14.6825 10.5475 15.5575 10.5475 16.625C10.5475 17.6925 11.3525 18.5675 12.3325 18.5675C13.33 18.5675 14.1175 17.6925 14.1175 16.625C14.135 15.5575 13.33 14.6825 12.3325 14.6825ZM30.8125 3.605V35C26.4037 31.1039 27.8137 32.3936 22.6925 27.6325L23.62 30.87H3.775C1.7975 30.87 0.1875 29.26 0.1875 27.265V3.605C0.1875 1.61 1.7975 0 3.775 0H27.225C29.2025 0 30.8125 1.61 30.8125 3.605ZM25.825 20.195C25.825 14.56 23.305 9.9925 23.305 9.9925C20.785 8.1025 18.3875 8.155 18.3875 8.155L18.1425 8.435C21.1175 9.345 22.5 10.6575 22.5 10.6575C18.343 8.37915 13.4599 8.37874 9.4275 10.15C8.78 10.4475 8.395 10.6575 8.395 10.6575C8.395 10.6575 9.8475 9.275 12.9975 8.365L12.8225 8.155C12.8225 8.155 10.425 8.1025 7.905 9.9925C7.905 9.9925 5.385 14.56 5.385 20.195C5.385 20.195 6.855 22.7325 10.7225 22.855C10.7225 22.855 11.37 22.0675 11.895 21.4025C9.6725 20.7375 8.8325 19.3375 8.8325 19.3375C9.08994 19.5177 9.51445 19.7513 9.55 19.775C12.5038 21.4292 16.6996 21.9711 20.47 20.3875C21.0825 20.16 21.765 19.8275 22.4825 19.355C22.4825 19.355 21.6075 20.79 19.315 21.4375C19.84 22.1025 20.47 22.855 20.47 22.855C24.3375 22.7325 25.825 20.195 25.825 20.195Z" fill="white"/>
</svg>
