<svg width="41" height="30" viewBox="0 0 41 30" fill="none" xmlns="http://www.w3.org/2000/svg">
<path d="M34.3617 3.08248C31.8122 1.98765 29.0783 1.18103 26.2198 0.71904C26.1678 0.710124 26.1158 0.732406 26.089 0.776971C25.7374 1.36225 25.3479 2.12579 25.0752 2.72593C22.0007 2.29515 18.942 2.29515 15.9305 2.72593C15.6577 2.11245 15.2541 1.36225 14.901 0.776971C14.8741 0.733893 14.8221 0.711611 14.7701 0.71904C11.9132 1.17955 9.17927 1.98617 6.62823 3.08248C6.60614 3.09139 6.58721 3.10626 6.57465 3.12555C1.38899 10.3763 -0.0315838 17.4488 0.6653 24.4336C0.668453 24.4678 0.68895 24.5005 0.71733 24.5213C4.13868 26.8728 7.45285 28.3004 10.7055 29.2466C10.7575 29.2615 10.8127 29.2437 10.8458 29.2036C11.6152 28.2202 12.3011 27.1833 12.8891 26.0929C12.9238 26.0291 12.8907 25.9533 12.8198 25.928C11.7319 25.5418 10.696 25.0709 9.69955 24.5361C9.62073 24.4931 9.61442 24.3876 9.68693 24.337C9.89662 24.19 10.1064 24.037 10.3066 23.8825C10.3428 23.8543 10.3933 23.8483 10.4359 23.8661C16.9821 26.6634 24.0692 26.6634 30.5383 23.8661C30.5808 23.8468 30.6313 23.8528 30.6691 23.881C30.8694 24.0355 31.0791 24.19 31.2904 24.337C31.3629 24.3876 31.3581 24.4931 31.2793 24.5361C30.2829 25.0813 29.247 25.5418 28.1575 25.9266C28.0866 25.9518 28.055 26.0291 28.0897 26.0929C28.6904 27.1818 29.3763 28.2187 30.1315 29.2021C30.163 29.2437 30.2198 29.2615 30.2718 29.2466C33.5402 28.3004 36.8544 26.8728 40.2757 24.5213C40.3057 24.5005 40.3246 24.4693 40.3278 24.4351C41.1618 16.3599 38.9308 9.34537 34.4137 3.12703C34.4026 3.10626 34.3838 3.09139 34.3617 3.08248ZM13.8667 20.1806C11.8958 20.1806 10.2719 18.4872 10.2719 16.4074C10.2719 14.3277 11.8643 12.6343 13.8667 12.6343C15.8848 12.6343 17.493 14.3426 17.4615 16.4074C17.4615 18.4872 15.869 20.1806 13.8667 20.1806ZM27.1579 20.1806C25.1871 20.1806 23.5632 18.4872 23.5632 16.4074C23.5632 14.3277 25.1556 12.6343 27.1579 12.6343C29.1761 12.6343 30.7842 14.3426 30.7527 16.4074C30.7527 18.4872 29.1761 20.1806 27.1579 20.1806Z" fill="white"/>
</svg>
