<svg width="168" height="13" viewBox="0 0 168 13" fill="none" xmlns="http://www.w3.org/2000/svg">
<path d="M168 0H68V4H168V0Z" fill="#D9D9D9"/>
<path d="M168 8H68V12H168V8Z" fill="#D9D9D9"/>
<path d="M0.27832 0.363647H2.409L6.11355 9.40911H6.24991L9.95441 0.363647H12.0851V12H10.4147V3.57956H10.3067L6.87491 11.983H5.48855L2.05673 3.57387H1.94877V12H0.27832V0.363647ZM16.8777 12V0.363647H24.1731V1.87501H18.6334V5.42046H23.7925V6.92615H18.6334V10.4886H24.2413V12H16.8777ZM38.1504 0.363647V12H36.5367L30.6219 3.46592H30.514V12H28.7583V0.363647H30.3833L36.3038 8.90911H36.4117V0.363647H38.1504ZM50.4344 0.363647H52.1958V8.01701C52.1958 8.83141 52.0045 9.55301 51.6219 10.1818C51.2393 10.8068 50.7014 11.2992 50.0083 11.6591C49.3151 12.0152 48.5026 12.1932 47.5708 12.1932C46.6427 12.1932 45.8321 12.0152 45.1389 11.6591C44.4458 11.2992 43.9079 10.8068 43.5253 10.1818C43.1427 9.55301 42.9514 8.83141 42.9514 8.01701V0.363647H44.7071V7.87501C44.7071 8.40151 44.8226 8.86931 45.0537 9.27841C45.2886 9.68751 45.62 10.0095 46.048 10.2443C46.4761 10.4754 46.9836 10.5909 47.5708 10.5909C48.1617 10.5909 48.6711 10.4754 49.0992 10.2443C49.531 10.0095 49.8605 9.68751 50.0878 9.27841C50.3189 8.86931 50.4344 8.40151 50.4344 7.87501V0.363647Z" fill="white"/>
</svg>
