<svg width="35" height="35" viewBox="0 0 35 35" fill="none" xmlns="http://www.w3.org/2000/svg">
<path d="M10.252 0.122513C8.38999 0.210363 7.11843 0.507513 6.00683 0.944313C4.85638 1.39266 3.88128 1.99431 2.91108 2.96801C1.94088 3.94171 1.34343 4.91751 0.898234 6.06971C0.467384 7.18376 0.175484 8.45636 0.0932342 10.3194C0.0109842 12.1825 -0.00721576 12.7813 0.00188424 17.5336C0.0109842 22.2859 0.0319842 22.8816 0.122284 24.7485C0.211184 26.6102 0.507284 27.8814 0.944084 28.9933C1.39313 30.1438 1.99408 31.1185 2.96813 32.0891C3.94218 33.0596 4.91728 33.6557 6.07228 34.1016C7.18528 34.5317 8.45823 34.825 10.3209 34.9066C12.1836 34.9881 12.7832 35.007 17.5341 34.9979C22.285 34.9888 22.8831 34.9678 24.7497 34.8793C26.6162 34.7907 27.8808 34.4925 28.9931 34.0578C30.1435 33.6077 31.119 33.0078 32.0888 32.0334C33.0587 31.059 33.6558 30.0825 34.1006 28.9296C34.5318 27.8166 34.8248 26.5437 34.9056 24.6824C34.9872 22.8144 35.0064 22.218 34.9973 17.4664C34.9882 12.7148 34.9669 12.1191 34.8783 10.2529C34.7898 8.38671 34.4933 7.11936 34.0569 6.00671C33.6071 4.85626 33.0069 3.88221 32.0332 2.91096C31.0595 1.93971 30.0823 1.34296 28.9297 0.899163C27.816 0.468313 26.5438 0.174663 24.6811 0.0941629C22.8184 0.0136629 22.2188 -0.00698711 17.4662 0.00211289C12.7135 0.0112129 12.1185 0.0315129 10.252 0.122513ZM10.4564 31.7583C8.75014 31.6841 7.82368 31.4006 7.20628 31.1633C6.38868 30.8483 5.80628 30.4675 5.19098 29.8582C4.57568 29.2488 4.19768 28.6643 3.87848 27.8485C3.63873 27.2311 3.34998 26.3057 3.27018 24.5994C3.18338 22.7553 3.16518 22.2016 3.15503 17.5294C3.14488 12.8573 3.16273 12.3043 3.24358 10.4594C3.31638 8.75456 3.60163 7.82706 3.83858 7.21001C4.15358 6.39136 4.53298 5.81001 5.14373 5.19506C5.75448 4.58011 6.33723 4.20141 7.15378 3.88221C7.77048 3.64141 8.69588 3.35511 10.4014 3.27391C12.247 3.18641 12.8 3.16891 17.4714 3.15876C22.1429 3.14861 22.6973 3.16611 24.5435 3.24731C26.2484 3.32151 27.1762 3.60396 27.7926 3.84231C28.6105 4.15731 29.1926 4.53566 29.8075 5.14746C30.4225 5.75926 30.8015 6.33991 31.1207 7.15821C31.3619 7.77316 31.6482 8.69821 31.7287 10.4048C31.8165 12.2504 31.8365 12.8037 31.8449 17.4748C31.8533 22.1459 31.8368 22.7007 31.756 24.5448C31.6814 26.2511 31.3986 27.1779 31.161 27.796C30.846 28.6132 30.4662 29.196 29.8551 29.8106C29.244 30.4252 28.662 30.8039 27.8451 31.1231C27.2291 31.3635 26.3026 31.6505 24.5985 31.7317C22.7529 31.8185 22.1999 31.8367 17.5267 31.8469C12.8535 31.857 12.3023 31.8381 10.4567 31.7583M24.7227 8.14696C24.7234 8.56233 24.8473 8.96817 25.0786 9.31314C25.31 9.65811 25.6385 9.92673 26.0225 10.085C26.4065 10.2433 26.8289 10.2841 27.2361 10.2024C27.6434 10.1206 28.0172 9.91991 28.3104 9.62566C28.6035 9.33141 28.8029 8.95683 28.8831 8.54929C28.9634 8.14175 28.921 7.71955 28.7613 7.33611C28.6016 6.95266 28.3318 6.62518 27.986 6.39509C27.6402 6.165 27.2339 6.04263 26.8185 6.04346C26.2617 6.04458 25.7281 6.2668 25.3351 6.66126C24.9421 7.05572 24.7218 7.59013 24.7227 8.14696ZM8.51423 17.5175C8.52403 22.4805 12.5546 26.4947 17.5166 26.4852C22.4785 26.4758 26.4955 22.4455 26.486 17.4825C26.4766 12.5195 22.4449 8.50431 17.4823 8.51411C12.5196 8.52391 8.50478 12.5552 8.51423 17.5175ZM11.6663 17.5112C11.6641 16.3575 12.0039 15.229 12.643 14.2684C13.2821 13.3078 14.1917 12.5583 15.2567 12.1147C16.3218 11.6711 17.4945 11.5532 18.6265 11.7761C19.7585 11.9989 20.799 12.5524 21.6165 13.3666C22.4339 14.1808 22.9915 15.2192 23.2189 16.3503C23.4462 17.4814 23.333 18.6546 22.8936 19.7214C22.4542 20.7882 21.7083 21.7007 20.7503 22.3436C19.7922 22.9865 18.6651 23.3308 17.5113 23.3331C16.7452 23.3347 15.9864 23.1854 15.278 22.8937C14.5696 22.602 13.9256 22.1735 13.3829 21.6329C12.8401 21.0923 12.4091 20.45 12.1146 19.7428C11.8201 19.0356 11.6678 18.2773 11.6663 17.5112Z" fill="#F8F8F8"/>
</svg>
