<svg width="31" height="24" viewBox="0 0 31 24" fill="none" xmlns="http://www.w3.org/2000/svg">
<path d="M27.1667 0H3.83341C2.22925 0 0.916748 1.3125 0.916748 2.91667V20.4167C0.916748 22.0208 2.22925 23.3333 3.83341 23.3333H27.1667C28.7709 23.3333 30.0834 22.0208 30.0834 20.4167V2.91667C30.0834 1.3125 28.7709 0 27.1667 0ZM26.5834 6.19792L17.0459 12.1625C16.098 12.7604 14.9022 12.7604 13.9542 12.1625L4.41675 6.19792C4.27052 6.11583 4.14246 6.00492 4.04034 5.87191C3.93821 5.7389 3.86413 5.58655 3.82259 5.42408C3.78104 5.26161 3.7729 5.09241 3.79864 4.9267C3.82439 4.76099 3.88349 4.60223 3.97237 4.46002C4.06125 4.31782 4.17805 4.19512 4.31572 4.09937C4.45339 4.00361 4.60906 3.93679 4.7733 3.90294C4.93755 3.86908 5.10695 3.86891 5.27127 3.90242C5.43558 3.93594 5.59138 4.00244 5.72925 4.09792L15.5001 10.2083L25.2709 4.09792C25.4088 4.00244 25.5646 3.93594 25.7289 3.90242C25.8932 3.86891 26.0626 3.86908 26.2269 3.90294C26.3911 3.93679 26.5468 4.00361 26.6844 4.09937C26.8221 4.19512 26.9389 4.31782 27.0278 4.46002C27.1167 4.60223 27.1758 4.76099 27.2015 4.9267C27.2273 5.09241 27.2191 5.26161 27.1776 5.42408C27.136 5.58655 27.062 5.7389 26.9598 5.87191C26.8577 6.00492 26.7296 6.11583 26.5834 6.19792Z" fill="#F8F8F8"/>
</svg>
