<svg width="1722" height="896" viewBox="0 0 1722 896" fill="none" xmlns="http://www.w3.org/2000/svg">
<path d="M-6 0L59.6203 60.48" stroke="#E98BC7" stroke-opacity="0.27" stroke-width="3.5"/>
<path d="M59.6202 0L125.24 60.48" stroke="#E98BC7" stroke-opacity="0.27" stroke-width="3.5"/>
<path d="M125.24 0L190.861 60.48" stroke="#E98BC7" stroke-opacity="0.27" stroke-width="3.5"/>
<path d="M190.861 0L256.481 60.48" stroke="#E98BC7" stroke-opacity="0.27" stroke-width="3.5"/>
<path d="M256.481 0L322.101 60.48" stroke="#E98BC7" stroke-opacity="0.27" stroke-width="3.5"/>
<path d="M322.101 0L387.722 60.48" stroke="#E98BC7" stroke-opacity="0.27" stroke-width="3.5"/>
<path d="M453.342 0L387.721 60.48" stroke="#E98BC7" stroke-opacity="0.27" stroke-width="3.5"/>
<path d="M453.342 0L518.962 60.48" stroke="#E98BC7" stroke-opacity="0.27" stroke-width="3.5"/>
<path d="M518.962 0L584.582 60.48" stroke="#E98BC7" stroke-opacity="0.27" stroke-width="3.5"/>
<path d="M584.582 0L650.203 60.48" stroke="#E98BC7" stroke-opacity="0.27" stroke-width="3.5"/>
<path d="M650.203 0L715.823 60.48" stroke="#E98BC7" stroke-opacity="0.27" stroke-width="3.5"/>
<path d="M715.823 0L781.443 60.48" stroke="#E98BC7" stroke-opacity="0.27" stroke-width="3.5"/>
<path d="M781.443 0L847.063 60.48" stroke="#E98BC7" stroke-opacity="0.27" stroke-width="3.5"/>
<path d="M847.063 0L912.683 60.48" stroke="#E98BC7" stroke-opacity="0.27" stroke-width="3.5"/>
<path d="M978.304 0L912.684 60.48" stroke="#E98BC7" stroke-opacity="0.27" stroke-width="3.5"/>
<path d="M978.304 0L1043.92 60.48" stroke="#E98BC7" stroke-opacity="0.27" stroke-width="3.5"/>
<path d="M1043.92 0L1109.54 60.48" stroke="#E98BC7" stroke-opacity="0.27" stroke-width="3.5"/>
<path d="M1175.16 0L1109.54 60.48" stroke="#E98BC7" stroke-opacity="0.27" stroke-width="3.5"/>
<path d="M1175.16 0L1240.78 60.48" stroke="#E98BC7" stroke-opacity="0.27" stroke-width="3.5"/>
<path d="M1306.4 0L1240.78 60.48" stroke="#E98BC7" stroke-opacity="0.27" stroke-width="3.5"/>
<path d="M1372.03 0L1306.41 60.48" stroke="#E98BC7" stroke-opacity="0.27" stroke-width="3.5"/>
<path d="M1372.03 0L1437.65 60.48" stroke="#E98BC7" stroke-opacity="0.27" stroke-width="3.5"/>
<path d="M1437.65 0L1503.27 60.48" stroke="#E98BC7" stroke-opacity="0.27" stroke-width="3.5"/>
<path d="M1503.27 0L1568.89 60.48" stroke="#E98BC7" stroke-opacity="0.27" stroke-width="3.5"/>
<path d="M1568.89 0L1634.51 60.48" stroke="#E98BC7" stroke-opacity="0.27" stroke-width="3.5"/>
<path d="M1700.13 0L1634.51 60.48" stroke="#E98BC7" stroke-opacity="0.27" stroke-width="3.5"/>
<path d="M1700.13 0L1765.75 60.48" stroke="#E98BC7" stroke-opacity="0.27" stroke-width="3.5"/>
<path opacity="0.94" d="M-6 60.48L59.6203 120.96" stroke="#E98BC7" stroke-opacity="0.27" stroke-width="3.5"/>
<path opacity="0.94" d="M59.6202 60.48L125.24 120.96" stroke="#E98BC7" stroke-opacity="0.27" stroke-width="3.5"/>
<path opacity="0.94" d="M190.861 60.48L125.24 120.96" stroke="#E98BC7" stroke-opacity="0.27" stroke-width="3.5"/>
<path opacity="0.94" d="M190.861 60.48L256.481 120.96" stroke="#E98BC7" stroke-opacity="0.27" stroke-width="3.5"/>
<path opacity="0.94" d="M322.101 60.48L256.481 120.96" stroke="#E98BC7" stroke-opacity="0.27" stroke-width="3.5"/>
<path opacity="0.94" d="M322.101 60.48L387.722 120.96" stroke="#E98BC7" stroke-opacity="0.27" stroke-width="3.5"/>
<path opacity="0.94" d="M387.721 60.48L453.342 120.96" stroke="#E98BC7" stroke-opacity="0.27" stroke-width="3.5"/>
<path opacity="0.94" d="M453.342 60.48L518.962 120.96" stroke="#E98BC7" stroke-opacity="0.27" stroke-width="3.5"/>
<path opacity="0.94" d="M584.582 60.48L518.962 120.96" stroke="#E98BC7" stroke-opacity="0.27" stroke-width="3.5"/>
<path opacity="0.94" d="M650.203 60.48L584.582 120.96" stroke="#E98BC7" stroke-opacity="0.27" stroke-width="3.5"/>
<path opacity="0.94" d="M650.203 60.48L715.823 120.96" stroke="#E98BC7" stroke-opacity="0.27" stroke-width="3.5"/>
<path opacity="0.94" d="M781.443 60.48L715.823 120.96" stroke="#E98BC7" stroke-opacity="0.27" stroke-width="3.5"/>
<path opacity="0.94" d="M847.063 60.48L781.443 120.96" stroke="#E98BC7" stroke-opacity="0.27" stroke-width="3.5"/>
<path opacity="0.94" d="M847.063 60.48L912.683 120.96" stroke="#E98BC7" stroke-opacity="0.27" stroke-width="3.5"/>
<path opacity="0.94" d="M912.684 60.48L978.304 120.96" stroke="#E98BC7" stroke-opacity="0.27" stroke-width="3.5"/>
<path opacity="0.94" d="M1043.92 60.48L978.304 120.96" stroke="#E98BC7" stroke-opacity="0.27" stroke-width="3.5"/>
<path opacity="0.94" d="M1043.92 60.48L1109.54 120.96" stroke="#E98BC7" stroke-opacity="0.27" stroke-width="3.5"/>
<path opacity="0.94" d="M1109.54 60.48L1175.16 120.96" stroke="#E98BC7" stroke-opacity="0.27" stroke-width="3.5"/>
<path opacity="0.94" d="M1240.78 60.48L1175.16 120.96" stroke="#E98BC7" stroke-opacity="0.27" stroke-width="3.5"/>
<path opacity="0.94" d="M1306.4 60.48L1240.78 120.96" stroke="#E98BC7" stroke-opacity="0.27" stroke-width="3.5"/>
<path opacity="0.94" d="M1372.03 60.48L1306.41 120.96" stroke="#E98BC7" stroke-opacity="0.27" stroke-width="3.5"/>
<path opacity="0.94" d="M1372.03 60.48L1437.65 120.96" stroke="#E98BC7" stroke-opacity="0.27" stroke-width="3.5"/>
<path opacity="0.94" d="M1437.65 60.48L1503.27 120.96" stroke="#E98BC7" stroke-opacity="0.27" stroke-width="3.5"/>
<path opacity="0.94" d="M1503.27 60.48L1568.89 120.96" stroke="#E98BC7" stroke-opacity="0.27" stroke-width="3.5"/>
<path opacity="0.94" d="M1568.89 60.48L1634.51 120.96" stroke="#E98BC7" stroke-opacity="0.27" stroke-width="3.5"/>
<path opacity="0.94" d="M1700.13 60.48L1634.51 120.96" stroke="#E98BC7" stroke-opacity="0.27" stroke-width="3.5"/>
<path opacity="0.94" d="M1765.75 60.48L1700.13 120.96" stroke="#E98BC7" stroke-opacity="0.27" stroke-width="3.5"/>
<path opacity="0.87" d="M59.6203 120.96L-6 181.44" stroke="#E98BC7" stroke-opacity="0.27" stroke-width="3.5"/>
<path opacity="0.87" d="M59.6202 120.96L125.24 181.44" stroke="#E98BC7" stroke-opacity="0.27" stroke-width="3.5"/>
<path opacity="0.87" d="M190.861 120.96L125.24 181.44" stroke="#E98BC7" stroke-opacity="0.27" stroke-width="3.5"/>
<path opacity="0.87" d="M256.481 120.96L190.861 181.44" stroke="#E98BC7" stroke-opacity="0.27" stroke-width="3.5"/>
<path opacity="0.87" d="M256.481 120.96L322.101 181.44" stroke="#E98BC7" stroke-opacity="0.27" stroke-width="3.5"/>
<path opacity="0.87" d="M322.101 120.96L387.722 181.44" stroke="#E98BC7" stroke-opacity="0.27" stroke-width="3.5"/>
<path opacity="0.87" d="M453.342 120.96L387.721 181.44" stroke="#E98BC7" stroke-opacity="0.27" stroke-width="3.5"/>
<path opacity="0.87" d="M453.342 120.96L518.962 181.44" stroke="#E98BC7" stroke-opacity="0.27" stroke-width="3.5"/>
<path opacity="0.87" d="M584.582 120.96L518.962 181.44" stroke="#E98BC7" stroke-opacity="0.27" stroke-width="3.5"/>
<path opacity="0.87" d="M584.582 120.96L650.203 181.44" stroke="#E98BC7" stroke-opacity="0.27" stroke-width="3.5"/>
<path opacity="0.87" d="M650.203 120.96L715.823 181.44" stroke="#E98BC7" stroke-opacity="0.27" stroke-width="3.5"/>
<path opacity="0.87" d="M781.443 120.96L715.823 181.44" stroke="#E98BC7" stroke-opacity="0.27" stroke-width="3.5"/>
<path opacity="0.87" d="M847.063 120.96L781.443 181.44" stroke="#E98BC7" stroke-opacity="0.27" stroke-width="3.5"/>
<path opacity="0.87" d="M847.063 120.96L912.683 181.44" stroke="#E98BC7" stroke-opacity="0.27" stroke-width="3.5"/>
<path opacity="0.87" d="M978.304 120.96L912.684 181.44" stroke="#E98BC7" stroke-opacity="0.27" stroke-width="3.5"/>
<path opacity="0.87" d="M1043.92 120.96L978.304 181.44" stroke="#E98BC7" stroke-opacity="0.27" stroke-width="3.5"/>
<path opacity="0.87" d="M1109.54 120.96L1043.92 181.44" stroke="#E98BC7" stroke-opacity="0.27" stroke-width="3.5"/>
<path opacity="0.87" d="M1109.54 120.96L1175.16 181.44" stroke="#E98BC7" stroke-opacity="0.27" stroke-width="3.5"/>
<path opacity="0.87" d="M1175.16 120.96L1240.78 181.44" stroke="#E98BC7" stroke-opacity="0.27" stroke-width="3.5"/>
<path opacity="0.87" d="M1240.78 120.96L1306.4 181.44" stroke="#E98BC7" stroke-opacity="0.27" stroke-width="3.5"/>
<path opacity="0.87" d="M1306.41 120.96L1372.03 181.44" stroke="#E98BC7" stroke-opacity="0.27" stroke-width="3.5"/>
<path opacity="0.87" d="M1372.03 120.96L1437.65 181.44" stroke="#E98BC7" stroke-opacity="0.27" stroke-width="3.5"/>
<path opacity="0.87" d="M1503.27 120.96L1437.65 181.44" stroke="#E98BC7" stroke-opacity="0.27" stroke-width="3.5"/>
<path opacity="0.87" d="M1503.27 120.96L1568.89 181.44" stroke="#E98BC7" stroke-opacity="0.27" stroke-width="3.5"/>
<path opacity="0.87" d="M1568.89 120.96L1634.51 181.44" stroke="#E98BC7" stroke-opacity="0.27" stroke-width="3.5"/>
<path opacity="0.87" d="M1700.13 120.96L1634.51 181.44" stroke="#E98BC7" stroke-opacity="0.27" stroke-width="3.5"/>
<path opacity="0.87" d="M1765.75 120.96L1700.13 181.44" stroke="#E98BC7" stroke-opacity="0.27" stroke-width="3.5"/>
<path opacity="0.81" d="M-6 181.44L59.6203 241.92" stroke="#E98BC7" stroke-opacity="0.27" stroke-width="3.5"/>
<path opacity="0.81" d="M59.6202 181.44L125.24 241.92" stroke="#E98BC7" stroke-opacity="0.27" stroke-width="3.5"/>
<path opacity="0.81" d="M190.861 181.44L125.24 241.92" stroke="#E98BC7" stroke-opacity="0.27" stroke-width="3.5"/>
<path opacity="0.81" d="M190.861 181.44L256.481 241.92" stroke="#E98BC7" stroke-opacity="0.27" stroke-width="3.5"/>
<path opacity="0.81" d="M322.101 181.44L256.481 241.92" stroke="#E98BC7" stroke-opacity="0.27" stroke-width="3.5"/>
<path opacity="0.81" d="M322.101 181.44L387.722 241.92" stroke="#E98BC7" stroke-opacity="0.27" stroke-width="3.5"/>
<path opacity="0.81" d="M453.342 181.44L387.721 241.92" stroke="#E98BC7" stroke-opacity="0.27" stroke-width="3.5"/>
<path opacity="0.81" d="M518.962 181.44L453.342 241.92" stroke="#E98BC7" stroke-opacity="0.27" stroke-width="3.5"/>
<path opacity="0.81" d="M584.582 181.44L518.962 241.92" stroke="#E98BC7" stroke-opacity="0.27" stroke-width="3.5"/>
<path opacity="0.81" d="M584.582 181.44L650.203 241.92" stroke="#E98BC7" stroke-opacity="0.27" stroke-width="3.5"/>
<path opacity="0.81" d="M650.203 181.44L715.823 241.92" stroke="#E98BC7" stroke-opacity="0.27" stroke-width="3.5"/>
<path opacity="0.81" d="M781.443 181.44L715.823 241.92" stroke="#E98BC7" stroke-opacity="0.27" stroke-width="3.5"/>
<path opacity="0.81" d="M847.063 181.44L781.443 241.92" stroke="#E98BC7" stroke-opacity="0.27" stroke-width="3.5"/>
<path opacity="0.81" d="M847.063 181.44L912.683 241.92" stroke="#E98BC7" stroke-opacity="0.27" stroke-width="3.5"/>
<path opacity="0.81" d="M978.304 181.44L912.684 241.92" stroke="#E98BC7" stroke-opacity="0.27" stroke-width="3.5"/>
<path opacity="0.81" d="M978.304 181.44L1043.92 241.92" stroke="#E98BC7" stroke-opacity="0.27" stroke-width="3.5"/>
<path opacity="0.81" d="M1043.92 181.44L1109.54 241.92" stroke="#E98BC7" stroke-opacity="0.27" stroke-width="3.5"/>
<path opacity="0.81" d="M1109.54 181.44L1175.16 241.92" stroke="#E98BC7" stroke-opacity="0.27" stroke-width="3.5"/>
<path opacity="0.81" d="M1240.78 181.44L1175.16 241.92" stroke="#E98BC7" stroke-opacity="0.27" stroke-width="3.5"/>
<path opacity="0.81" d="M1240.78 181.44L1306.4 241.92" stroke="#E98BC7" stroke-opacity="0.27" stroke-width="3.5"/>
<path opacity="0.81" d="M1372.03 181.44L1306.41 241.92" stroke="#E98BC7" stroke-opacity="0.27" stroke-width="3.5"/>
<path opacity="0.81" d="M1437.65 181.44L1372.03 241.92" stroke="#E98BC7" stroke-opacity="0.27" stroke-width="3.5"/>
<path opacity="0.81" d="M1503.27 181.44L1437.65 241.92" stroke="#E98BC7" stroke-opacity="0.27" stroke-width="3.5"/>
<path opacity="0.81" d="M1503.27 181.44L1568.89 241.92" stroke="#E98BC7" stroke-opacity="0.27" stroke-width="3.5"/>
<path opacity="0.81" d="M1568.89 181.44L1634.51 241.92" stroke="#E98BC7" stroke-opacity="0.27" stroke-width="3.5"/>
<path opacity="0.81" d="M1700.13 181.44L1634.51 241.92" stroke="#E98BC7" stroke-opacity="0.27" stroke-width="3.5"/>
<path opacity="0.81" d="M1765.75 181.44L1700.13 241.92" stroke="#E98BC7" stroke-opacity="0.27" stroke-width="3.5"/>
<path opacity="0.74" d="M59.6203 241.92L-6 302.4" stroke="#E98BC7" stroke-opacity="0.27" stroke-width="3.5"/>
<path opacity="0.74" d="M59.6202 241.92L125.24 302.4" stroke="#E98BC7" stroke-opacity="0.27" stroke-width="3.5"/>
<path opacity="0.74" d="M125.24 241.92L190.861 302.4" stroke="#E98BC7" stroke-opacity="0.27" stroke-width="3.5"/>
<path opacity="0.74" d="M256.481 241.92L190.861 302.4" stroke="#E98BC7" stroke-opacity="0.27" stroke-width="3.5"/>
<path opacity="0.74" d="M322.101 241.92L256.481 302.4" stroke="#E98BC7" stroke-opacity="0.27" stroke-width="3.5"/>
<path opacity="0.74" d="M387.722 241.92L322.101 302.4" stroke="#E98BC7" stroke-opacity="0.27" stroke-width="3.5"/>
<path opacity="0.74" d="M453.342 241.92L387.721 302.4" stroke="#E98BC7" stroke-opacity="0.27" stroke-width="3.5"/>
<path opacity="0.74" d="M453.342 241.92L518.962 302.4" stroke="#E98BC7" stroke-opacity="0.27" stroke-width="3.5"/>
<path opacity="0.74" d="M518.962 241.92L584.582 302.4" stroke="#E98BC7" stroke-opacity="0.27" stroke-width="3.5"/>
<path opacity="0.74" d="M650.203 241.92L584.582 302.4" stroke="#E98BC7" stroke-opacity="0.27" stroke-width="3.5"/>
<path opacity="0.74" d="M715.823 241.92L650.203 302.4" stroke="#E98BC7" stroke-opacity="0.27" stroke-width="3.5"/>
<path opacity="0.74" d="M781.443 241.92L715.823 302.4" stroke="#E98BC7" stroke-opacity="0.27" stroke-width="3.5"/>
<path opacity="0.74" d="M781.443 241.92L847.063 302.4" stroke="#E98BC7" stroke-opacity="0.27" stroke-width="3.5"/>
<path opacity="0.74" d="M847.063 241.92L912.683 302.4" stroke="#E98BC7" stroke-opacity="0.27" stroke-width="3.5"/>
<path opacity="0.74" d="M912.684 241.92L978.304 302.4" stroke="#E98BC7" stroke-opacity="0.27" stroke-width="3.5"/>
<path opacity="0.74" d="M978.304 241.92L1043.92 302.4" stroke="#E98BC7" stroke-opacity="0.27" stroke-width="3.5"/>
<path opacity="0.74" d="M1109.54 241.92L1043.92 302.4" stroke="#E98BC7" stroke-opacity="0.27" stroke-width="3.5"/>
<path opacity="0.74" d="M1109.54 241.92L1175.16 302.4" stroke="#E98BC7" stroke-opacity="0.27" stroke-width="3.5"/>
<path opacity="0.74" d="M1175.16 241.92L1240.78 302.4" stroke="#E98BC7" stroke-opacity="0.27" stroke-width="3.5"/>
<path opacity="0.74" d="M1240.78 241.92L1306.4 302.4" stroke="#E98BC7" stroke-opacity="0.27" stroke-width="3.5"/>
<path opacity="0.74" d="M1372.03 241.92L1306.41 302.4" stroke="#E98BC7" stroke-opacity="0.27" stroke-width="3.5"/>
<path opacity="0.74" d="M1437.65 241.92L1372.03 302.4" stroke="#E98BC7" stroke-opacity="0.27" stroke-width="3.5"/>
<path opacity="0.74" d="M1437.65 241.92L1503.27 302.4" stroke="#E98BC7" stroke-opacity="0.27" stroke-width="3.5"/>
<path opacity="0.74" d="M1568.89 241.92L1503.27 302.4" stroke="#E98BC7" stroke-opacity="0.27" stroke-width="3.5"/>
<path opacity="0.74" d="M1634.51 241.92L1568.89 302.4" stroke="#E98BC7" stroke-opacity="0.27" stroke-width="3.5"/>
<path opacity="0.74" d="M1634.51 241.92L1700.13 302.4" stroke="#E98BC7" stroke-opacity="0.27" stroke-width="3.5"/>
<path opacity="0.74" d="M1700.13 241.92L1765.75 302.4" stroke="#E98BC7" stroke-opacity="0.27" stroke-width="3.5"/>
<path opacity="0.68" d="M-6 302.4L59.6203 362.88" stroke="#E98BC7" stroke-opacity="0.27" stroke-width="3.5"/>
<path opacity="0.68" d="M59.6202 302.4L125.24 362.88" stroke="#E98BC7" stroke-opacity="0.27" stroke-width="3.5"/>
<path opacity="0.68" d="M190.861 302.4L125.24 362.88" stroke="#E98BC7" stroke-opacity="0.27" stroke-width="3.5"/>
<path opacity="0.68" d="M256.481 302.4L190.861 362.88" stroke="#E98BC7" stroke-opacity="0.27" stroke-width="3.5"/>
<path opacity="0.68" d="M322.101 302.4L256.481 362.88" stroke="#E98BC7" stroke-opacity="0.27" stroke-width="3.5"/>
<path opacity="0.68" d="M387.722 302.4L322.101 362.88" stroke="#E98BC7" stroke-opacity="0.27" stroke-width="3.5"/>
<path opacity="0.68" d="M453.342 302.4L387.721 362.88" stroke="#E98BC7" stroke-opacity="0.27" stroke-width="3.5"/>
<path opacity="0.68" d="M518.962 302.4L453.342 362.88" stroke="#E98BC7" stroke-opacity="0.27" stroke-width="3.5"/>
<path opacity="0.68" d="M518.962 302.4L584.582 362.88" stroke="#E98BC7" stroke-opacity="0.27" stroke-width="3.5"/>
<path opacity="0.68" d="M650.203 302.4L584.582 362.88" stroke="#E98BC7" stroke-opacity="0.27" stroke-width="3.5"/>
<path opacity="0.68" d="M650.203 302.4L715.823 362.88" stroke="#E98BC7" stroke-opacity="0.27" stroke-width="3.5"/>
<path opacity="0.68" d="M715.823 302.4L781.443 362.88" stroke="#E98BC7" stroke-opacity="0.27" stroke-width="3.5"/>
<path opacity="0.68" d="M781.443 302.4L847.063 362.88" stroke="#E98BC7" stroke-opacity="0.27" stroke-width="3.5"/>
<path opacity="0.68" d="M912.683 302.4L847.063 362.88" stroke="#E98BC7" stroke-opacity="0.27" stroke-width="3.5"/>
<path opacity="0.68" d="M978.304 302.4L912.684 362.88" stroke="#E98BC7" stroke-opacity="0.27" stroke-width="3.5"/>
<path opacity="0.68" d="M1043.92 302.4L978.304 362.88" stroke="#E98BC7" stroke-opacity="0.27" stroke-width="3.5"/>
<path opacity="0.68" d="M1109.54 302.4L1043.92 362.88" stroke="#E98BC7" stroke-opacity="0.27" stroke-width="3.5"/>
<path opacity="0.68" d="M1175.16 302.4L1109.54 362.88" stroke="#E98BC7" stroke-opacity="0.27" stroke-width="3.5"/>
<path opacity="0.68" d="M1175.16 302.4L1240.78 362.88" stroke="#E98BC7" stroke-opacity="0.27" stroke-width="3.5"/>
<path opacity="0.68" d="M1240.78 302.4L1306.4 362.88" stroke="#E98BC7" stroke-opacity="0.27" stroke-width="3.5"/>
<path opacity="0.68" d="M1372.03 302.4L1306.41 362.88" stroke="#E98BC7" stroke-opacity="0.27" stroke-width="3.5"/>
<path opacity="0.68" d="M1437.65 302.4L1372.03 362.88" stroke="#E98BC7" stroke-opacity="0.27" stroke-width="3.5"/>
<path opacity="0.68" d="M1437.65 302.4L1503.27 362.88" stroke="#E98BC7" stroke-opacity="0.27" stroke-width="3.5"/>
<path opacity="0.68" d="M1568.89 302.4L1503.27 362.88" stroke="#E98BC7" stroke-opacity="0.27" stroke-width="3.5"/>
<path opacity="0.68" d="M1568.89 302.4L1634.51 362.88" stroke="#E98BC7" stroke-opacity="0.27" stroke-width="3.5"/>
<path opacity="0.68" d="M1634.51 302.4L1700.13 362.88" stroke="#E98BC7" stroke-opacity="0.27" stroke-width="3.5"/>
<path opacity="0.68" d="M1765.75 302.4L1700.13 362.88" stroke="#E98BC7" stroke-opacity="0.27" stroke-width="3.5"/>
<path opacity="0.62" d="M-6 362.88L59.6203 423.36" stroke="#E98BC7" stroke-opacity="0.27" stroke-width="3.5"/>
<path opacity="0.62" d="M59.6202 362.88L125.24 423.36" stroke="#E98BC7" stroke-opacity="0.27" stroke-width="3.5"/>
<path opacity="0.62" d="M190.861 362.88L125.24 423.36" stroke="#E98BC7" stroke-opacity="0.27" stroke-width="3.5"/>
<path opacity="0.62" d="M190.861 362.88L256.481 423.36" stroke="#E98BC7" stroke-opacity="0.27" stroke-width="3.5"/>
<path opacity="0.62" d="M256.481 362.88L322.101 423.36" stroke="#E98BC7" stroke-opacity="0.27" stroke-width="3.5"/>
<path opacity="0.62" d="M322.101 362.88L387.722 423.36" stroke="#E98BC7" stroke-opacity="0.27" stroke-width="3.5"/>
<path opacity="0.62" d="M453.342 362.88L387.721 423.36" stroke="#E98BC7" stroke-opacity="0.27" stroke-width="3.5"/>
<path opacity="0.62" d="M453.342 362.88L518.962 423.36" stroke="#E98BC7" stroke-opacity="0.27" stroke-width="3.5"/>
<path opacity="0.62" d="M518.962 362.88L584.582 423.36" stroke="#E98BC7" stroke-opacity="0.27" stroke-width="3.5"/>
<path opacity="0.62" d="M650.203 362.88L584.582 423.36" stroke="#E98BC7" stroke-opacity="0.27" stroke-width="3.5"/>
<path opacity="0.62" d="M715.823 362.88L650.203 423.36" stroke="#E98BC7" stroke-opacity="0.27" stroke-width="3.5"/>
<path opacity="0.62" d="M715.823 362.88L781.443 423.36" stroke="#E98BC7" stroke-opacity="0.27" stroke-width="3.5"/>
<path opacity="0.62" d="M847.063 362.88L781.443 423.36" stroke="#E98BC7" stroke-opacity="0.27" stroke-width="3.5"/>
<path opacity="0.62" d="M912.683 362.88L847.063 423.36" stroke="#E98BC7" stroke-opacity="0.27" stroke-width="3.5"/>
<path opacity="0.62" d="M978.304 362.88L912.684 423.36" stroke="#E98BC7" stroke-opacity="0.27" stroke-width="3.5"/>
<path opacity="0.62" d="M1043.92 362.88L978.304 423.36" stroke="#E98BC7" stroke-opacity="0.27" stroke-width="3.5"/>
<path opacity="0.62" d="M1109.54 362.88L1043.92 423.36" stroke="#E98BC7" stroke-opacity="0.27" stroke-width="3.5"/>
<path opacity="0.62" d="M1175.16 362.88L1109.54 423.36" stroke="#E98BC7" stroke-opacity="0.27" stroke-width="3.5"/>
<path opacity="0.62" d="M1240.78 362.88L1175.16 423.36" stroke="#E98BC7" stroke-opacity="0.27" stroke-width="3.5"/>
<path opacity="0.62" d="M1306.4 362.88L1240.78 423.36" stroke="#E98BC7" stroke-opacity="0.27" stroke-width="3.5"/>
<path opacity="0.62" d="M1372.03 362.88L1306.41 423.36" stroke="#E98BC7" stroke-opacity="0.27" stroke-width="3.5"/>
<path opacity="0.62" d="M1437.65 362.88L1372.03 423.36" stroke="#E98BC7" stroke-opacity="0.27" stroke-width="3.5"/>
<path opacity="0.62" d="M1437.65 362.88L1503.27 423.36" stroke="#E98BC7" stroke-opacity="0.27" stroke-width="3.5"/>
<path opacity="0.62" d="M1568.89 362.88L1503.27 423.36" stroke="#E98BC7" stroke-opacity="0.27" stroke-width="3.5"/>
<path opacity="0.62" d="M1634.51 362.88L1568.89 423.36" stroke="#E98BC7" stroke-opacity="0.27" stroke-width="3.5"/>
<path opacity="0.62" d="M1700.13 362.88L1634.51 423.36" stroke="#E98BC7" stroke-opacity="0.27" stroke-width="3.5"/>
<path opacity="0.62" d="M1700.13 362.88L1765.75 423.36" stroke="#E98BC7" stroke-opacity="0.27" stroke-width="3.5"/>
<path opacity="0.55" d="M-6 423.36L59.6203 483.84" stroke="#E98BC7" stroke-opacity="0.27" stroke-width="3.5"/>
<path opacity="0.55" d="M59.6202 423.36L125.24 483.84" stroke="#E98BC7" stroke-opacity="0.27" stroke-width="3.5"/>
<path opacity="0.55" d="M125.24 423.36L190.861 483.84" stroke="#E98BC7" stroke-opacity="0.27" stroke-width="3.5"/>
<path opacity="0.55" d="M190.861 423.36L256.481 483.84" stroke="#E98BC7" stroke-opacity="0.27" stroke-width="3.5"/>
<path opacity="0.55" d="M322.101 423.36L256.481 483.84" stroke="#E98BC7" stroke-opacity="0.27" stroke-width="3.5"/>
<path opacity="0.55" d="M387.722 423.36L322.101 483.84" stroke="#E98BC7" stroke-opacity="0.27" stroke-width="3.5"/>
<path opacity="0.55" d="M387.721 423.36L453.342 483.84" stroke="#E98BC7" stroke-opacity="0.27" stroke-width="3.5"/>
<path opacity="0.55" d="M453.342 423.36L518.962 483.84" stroke="#E98BC7" stroke-opacity="0.27" stroke-width="3.5"/>
<path opacity="0.55" d="M518.962 423.36L584.582 483.84" stroke="#E98BC7" stroke-opacity="0.27" stroke-width="3.5"/>
<path opacity="0.55" d="M650.203 423.36L584.582 483.84" stroke="#E98BC7" stroke-opacity="0.27" stroke-width="3.5"/>
<path opacity="0.55" d="M715.823 423.36L650.203 483.84" stroke="#E98BC7" stroke-opacity="0.27" stroke-width="3.5"/>
<path opacity="0.55" d="M715.823 423.36L781.443 483.84" stroke="#E98BC7" stroke-opacity="0.27" stroke-width="3.5"/>
<path opacity="0.55" d="M781.443 423.36L847.063 483.84" stroke="#E98BC7" stroke-opacity="0.27" stroke-width="3.5"/>
<path opacity="0.55" d="M847.063 423.36L912.683 483.84" stroke="#E98BC7" stroke-opacity="0.27" stroke-width="3.5"/>
<path opacity="0.55" d="M912.684 423.36L978.304 483.84" stroke="#E98BC7" stroke-opacity="0.27" stroke-width="3.5"/>
<path opacity="0.55" d="M978.304 423.36L1043.92 483.84" stroke="#E98BC7" stroke-opacity="0.27" stroke-width="3.5"/>
<path opacity="0.55" d="M1043.92 423.36L1109.54 483.84" stroke="#E98BC7" stroke-opacity="0.27" stroke-width="3.5"/>
<path opacity="0.55" d="M1109.54 423.36L1175.16 483.84" stroke="#E98BC7" stroke-opacity="0.27" stroke-width="3.5"/>
<path opacity="0.55" d="M1175.16 423.36L1240.78 483.84" stroke="#E98BC7" stroke-opacity="0.27" stroke-width="3.5"/>
<path opacity="0.55" d="M1240.78 423.36L1306.4 483.84" stroke="#E98BC7" stroke-opacity="0.27" stroke-width="3.5"/>
<path opacity="0.55" d="M1306.41 423.36L1372.03 483.84" stroke="#E98BC7" stroke-opacity="0.27" stroke-width="3.5"/>
<path opacity="0.55" d="M1437.65 423.36L1372.03 483.84" stroke="#E98BC7" stroke-opacity="0.27" stroke-width="3.5"/>
<path opacity="0.55" d="M1437.65 423.36L1503.27 483.84" stroke="#E98BC7" stroke-opacity="0.27" stroke-width="3.5"/>
<path opacity="0.55" d="M1568.89 423.36L1503.27 483.84" stroke="#E98BC7" stroke-opacity="0.27" stroke-width="3.5"/>
<path opacity="0.55" d="M1634.51 423.36L1568.89 483.84" stroke="#E98BC7" stroke-opacity="0.27" stroke-width="3.5"/>
<path opacity="0.55" d="M1634.51 423.36L1700.13 483.84" stroke="#E98BC7" stroke-opacity="0.27" stroke-width="3.5"/>
<path opacity="0.55" d="M1700.13 423.36L1765.75 483.84" stroke="#E98BC7" stroke-opacity="0.27" stroke-width="3.5"/>
<path opacity="0.49" d="M59.6203 483.84L-6 544.32" stroke="#E98BC7" stroke-opacity="0.27" stroke-width="3.5"/>
<path opacity="0.49" d="M125.24 483.84L59.6202 544.32" stroke="#E98BC7" stroke-opacity="0.27" stroke-width="3.5"/>
<path opacity="0.49" d="M190.861 483.84L125.24 544.32" stroke="#E98BC7" stroke-opacity="0.27" stroke-width="3.5"/>
<path opacity="0.49" d="M190.861 483.84L256.481 544.32" stroke="#E98BC7" stroke-opacity="0.27" stroke-width="3.5"/>
<path opacity="0.49" d="M256.481 483.84L322.101 544.32" stroke="#E98BC7" stroke-opacity="0.27" stroke-width="3.5"/>
<path opacity="0.49" d="M387.722 483.84L322.101 544.32" stroke="#E98BC7" stroke-opacity="0.27" stroke-width="3.5"/>
<path opacity="0.49" d="M387.721 483.84L453.342 544.32" stroke="#E98BC7" stroke-opacity="0.27" stroke-width="3.5"/>
<path opacity="0.49" d="M453.342 483.84L518.962 544.32" stroke="#E98BC7" stroke-opacity="0.27" stroke-width="3.5"/>
<path opacity="0.49" d="M518.962 483.84L584.582 544.32" stroke="#E98BC7" stroke-opacity="0.27" stroke-width="3.5"/>
<path opacity="0.49" d="M650.203 483.84L584.582 544.32" stroke="#E98BC7" stroke-opacity="0.27" stroke-width="3.5"/>
<path opacity="0.49" d="M715.823 483.84L650.203 544.32" stroke="#E98BC7" stroke-opacity="0.27" stroke-width="3.5"/>
<path opacity="0.49" d="M781.443 483.84L715.823 544.32" stroke="#E98BC7" stroke-opacity="0.27" stroke-width="3.5"/>
<path opacity="0.49" d="M781.443 483.84L847.063 544.32" stroke="#E98BC7" stroke-opacity="0.27" stroke-width="3.5"/>
<path opacity="0.49" d="M912.683 483.84L847.063 544.32" stroke="#E98BC7" stroke-opacity="0.27" stroke-width="3.5"/>
<path opacity="0.49" d="M912.684 483.84L978.304 544.32" stroke="#E98BC7" stroke-opacity="0.27" stroke-width="3.5"/>
<path opacity="0.49" d="M978.304 483.84L1043.92 544.32" stroke="#E98BC7" stroke-opacity="0.27" stroke-width="3.5"/>
<path opacity="0.49" d="M1043.92 483.84L1109.54 544.32" stroke="#E98BC7" stroke-opacity="0.27" stroke-width="3.5"/>
<path opacity="0.49" d="M1175.16 483.84L1109.54 544.32" stroke="#E98BC7" stroke-opacity="0.27" stroke-width="3.5"/>
<path opacity="0.49" d="M1175.16 483.84L1240.78 544.32" stroke="#E98BC7" stroke-opacity="0.27" stroke-width="3.5"/>
<path opacity="0.49" d="M1306.4 483.84L1240.78 544.32" stroke="#E98BC7" stroke-opacity="0.27" stroke-width="3.5"/>
<path opacity="0.49" d="M1306.41 483.84L1372.03 544.32" stroke="#E98BC7" stroke-opacity="0.27" stroke-width="3.5"/>
<path opacity="0.49" d="M1437.65 483.84L1372.03 544.32" stroke="#E98BC7" stroke-opacity="0.27" stroke-width="3.5"/>
<path opacity="0.49" d="M1437.65 483.84L1503.27 544.32" stroke="#E98BC7" stroke-opacity="0.27" stroke-width="3.5"/>
<path opacity="0.49" d="M1503.27 483.84L1568.89 544.32" stroke="#E98BC7" stroke-opacity="0.27" stroke-width="3.5"/>
<path opacity="0.49" d="M1568.89 483.84L1634.51 544.32" stroke="#E98BC7" stroke-opacity="0.27" stroke-width="3.5"/>
<path opacity="0.49" d="M1634.51 483.84L1700.13 544.32" stroke="#E98BC7" stroke-opacity="0.27" stroke-width="3.5"/>
<path opacity="0.49" d="M1700.13 483.84L1765.75 544.32" stroke="#E98BC7" stroke-opacity="0.27" stroke-width="3.5"/>
<path opacity="0.42" d="M59.6203 544.32L-6 604.8" stroke="#E98BC7" stroke-opacity="0.27" stroke-width="3.5"/>
<path opacity="0.42" d="M59.6202 544.32L125.24 604.8" stroke="#E98BC7" stroke-opacity="0.27" stroke-width="3.5"/>
<path opacity="0.42" d="M190.861 544.32L125.24 604.8" stroke="#E98BC7" stroke-opacity="0.27" stroke-width="3.5"/>
<path opacity="0.42" d="M256.481 544.32L190.861 604.8" stroke="#E98BC7" stroke-opacity="0.27" stroke-width="3.5"/>
<path opacity="0.42" d="M322.101 544.32L256.481 604.8" stroke="#E98BC7" stroke-opacity="0.27" stroke-width="3.5"/>
<path opacity="0.42" d="M322.101 544.32L387.722 604.8" stroke="#E98BC7" stroke-opacity="0.27" stroke-width="3.5"/>
<path opacity="0.42" d="M387.721 544.32L453.342 604.8" stroke="#E98BC7" stroke-opacity="0.27" stroke-width="3.5"/>
<path opacity="0.42" d="M453.342 544.32L518.962 604.8" stroke="#E98BC7" stroke-opacity="0.27" stroke-width="3.5"/>
<path opacity="0.42" d="M518.962 544.32L584.582 604.8" stroke="#E98BC7" stroke-opacity="0.27" stroke-width="3.5"/>
<path opacity="0.42" d="M584.582 544.32L650.203 604.8" stroke="#E98BC7" stroke-opacity="0.27" stroke-width="3.5"/>
<path opacity="0.42" d="M650.203 544.32L715.823 604.8" stroke="#E98BC7" stroke-opacity="0.27" stroke-width="3.5"/>
<path opacity="0.42" d="M715.823 544.32L781.443 604.8" stroke="#E98BC7" stroke-opacity="0.27" stroke-width="3.5"/>
<path opacity="0.42" d="M847.063 544.32L781.443 604.8" stroke="#E98BC7" stroke-opacity="0.27" stroke-width="3.5"/>
<path opacity="0.42" d="M847.063 544.32L912.683 604.8" stroke="#E98BC7" stroke-opacity="0.27" stroke-width="3.5"/>
<path opacity="0.42" d="M978.304 544.32L912.684 604.8" stroke="#E98BC7" stroke-opacity="0.27" stroke-width="3.5"/>
<path opacity="0.42" d="M1043.92 544.32L978.304 604.8" stroke="#E98BC7" stroke-opacity="0.27" stroke-width="3.5"/>
<path opacity="0.42" d="M1043.92 544.32L1109.54 604.8" stroke="#E98BC7" stroke-opacity="0.27" stroke-width="3.5"/>
<path opacity="0.42" d="M1175.16 544.32L1109.54 604.8" stroke="#E98BC7" stroke-opacity="0.27" stroke-width="3.5"/>
<path opacity="0.42" d="M1175.16 544.32L1240.78 604.8" stroke="#E98BC7" stroke-opacity="0.27" stroke-width="3.5"/>
<path opacity="0.42" d="M1306.4 544.32L1240.78 604.8" stroke="#E98BC7" stroke-opacity="0.27" stroke-width="3.5"/>
<path opacity="0.42" d="M1372.03 544.32L1306.41 604.8" stroke="#E98BC7" stroke-opacity="0.27" stroke-width="3.5"/>
<path opacity="0.42" d="M1372.03 544.32L1437.65 604.8" stroke="#E98BC7" stroke-opacity="0.27" stroke-width="3.5"/>
<path opacity="0.42" d="M1437.65 544.32L1503.27 604.8" stroke="#E98BC7" stroke-opacity="0.27" stroke-width="3.5"/>
<path opacity="0.42" d="M1503.27 544.32L1568.89 604.8" stroke="#E98BC7" stroke-opacity="0.27" stroke-width="3.5"/>
<path opacity="0.42" d="M1634.51 544.32L1568.89 604.8" stroke="#E98BC7" stroke-opacity="0.27" stroke-width="3.5"/>
<path opacity="0.42" d="M1700.13 544.32L1634.51 604.8" stroke="#E98BC7" stroke-opacity="0.27" stroke-width="3.5"/>
<path opacity="0.42" d="M1700.13 544.32L1765.75 604.8" stroke="#E98BC7" stroke-opacity="0.27" stroke-width="3.5"/>
<path opacity="0.36" d="M-6 604.8L59.6203 665.28" stroke="#E98BC7" stroke-opacity="0.27" stroke-width="3.5"/>
<path opacity="0.36" d="M59.6202 604.8L125.24 665.28" stroke="#E98BC7" stroke-opacity="0.27" stroke-width="3.5"/>
<path opacity="0.36" d="M190.861 604.8L125.24 665.28" stroke="#E98BC7" stroke-opacity="0.27" stroke-width="3.5"/>
<path opacity="0.36" d="M190.861 604.8L256.481 665.28" stroke="#E98BC7" stroke-opacity="0.27" stroke-width="3.5"/>
<path opacity="0.36" d="M322.101 604.8L256.481 665.28" stroke="#E98BC7" stroke-opacity="0.27" stroke-width="3.5"/>
<path opacity="0.36" d="M387.722 604.8L322.101 665.28" stroke="#E98BC7" stroke-opacity="0.27" stroke-width="3.5"/>
<path opacity="0.36" d="M453.342 604.8L387.721 665.28" stroke="#E98BC7" stroke-opacity="0.27" stroke-width="3.5"/>
<path opacity="0.36" d="M453.342 604.8L518.962 665.28" stroke="#E98BC7" stroke-opacity="0.27" stroke-width="3.5"/>
<path opacity="0.36" d="M518.962 604.8L584.582 665.28" stroke="#E98BC7" stroke-opacity="0.27" stroke-width="3.5"/>
<path opacity="0.36" d="M584.582 604.8L650.203 665.28" stroke="#E98BC7" stroke-opacity="0.27" stroke-width="3.5"/>
<path opacity="0.36" d="M650.203 604.8L715.823 665.28" stroke="#E98BC7" stroke-opacity="0.27" stroke-width="3.5"/>
<path opacity="0.36" d="M781.443 604.8L715.823 665.28" stroke="#E98BC7" stroke-opacity="0.27" stroke-width="3.5"/>
<path opacity="0.36" d="M781.443 604.8L847.063 665.28" stroke="#E98BC7" stroke-opacity="0.27" stroke-width="3.5"/>
<path opacity="0.36" d="M912.683 604.8L847.063 665.28" stroke="#E98BC7" stroke-opacity="0.27" stroke-width="3.5"/>
<path opacity="0.36" d="M912.684 604.8L978.304 665.28" stroke="#E98BC7" stroke-opacity="0.27" stroke-width="3.5"/>
<path opacity="0.36" d="M978.304 604.8L1043.92 665.28" stroke="#E98BC7" stroke-opacity="0.27" stroke-width="3.5"/>
<path opacity="0.36" d="M1109.54 604.8L1043.92 665.28" stroke="#E98BC7" stroke-opacity="0.27" stroke-width="3.5"/>
<path opacity="0.36" d="M1109.54 604.8L1175.16 665.28" stroke="#E98BC7" stroke-opacity="0.27" stroke-width="3.5"/>
<path opacity="0.36" d="M1175.16 604.8L1240.78 665.28" stroke="#E98BC7" stroke-opacity="0.27" stroke-width="3.5"/>
<path opacity="0.36" d="M1240.78 604.8L1306.4 665.28" stroke="#E98BC7" stroke-opacity="0.27" stroke-width="3.5"/>
<path opacity="0.36" d="M1306.41 604.8L1372.03 665.28" stroke="#E98BC7" stroke-opacity="0.27" stroke-width="3.5"/>
<path opacity="0.36" d="M1437.65 604.8L1372.03 665.28" stroke="#E98BC7" stroke-opacity="0.27" stroke-width="3.5"/>
<path opacity="0.36" d="M1503.27 604.8L1437.65 665.28" stroke="#E98BC7" stroke-opacity="0.27" stroke-width="3.5"/>
<path opacity="0.36" d="M1568.89 604.8L1503.27 665.28" stroke="#E98BC7" stroke-opacity="0.27" stroke-width="3.5"/>
<path opacity="0.36" d="M1634.51 604.8L1568.89 665.28" stroke="#E98BC7" stroke-opacity="0.27" stroke-width="3.5"/>
<path opacity="0.36" d="M1634.51 604.8L1700.13 665.28" stroke="#E98BC7" stroke-opacity="0.27" stroke-width="3.5"/>
<path opacity="0.36" d="M1765.75 604.8L1700.13 665.28" stroke="#E98BC7" stroke-opacity="0.27" stroke-width="3.5"/>
<path opacity="0.29" d="M59.6203 665.28L-6 725.76" stroke="#E98BC7" stroke-opacity="0.27" stroke-width="3.5"/>
<path opacity="0.29" d="M59.6202 665.28L125.24 725.76" stroke="#E98BC7" stroke-opacity="0.27" stroke-width="3.5"/>
<path opacity="0.29" d="M190.861 665.28L125.24 725.76" stroke="#E98BC7" stroke-opacity="0.27" stroke-width="3.5"/>
<path opacity="0.29" d="M256.481 665.28L190.861 725.76" stroke="#E98BC7" stroke-opacity="0.27" stroke-width="3.5"/>
<path opacity="0.29" d="M322.101 665.28L256.481 725.76" stroke="#E98BC7" stroke-opacity="0.27" stroke-width="3.5"/>
<path opacity="0.29" d="M322.101 665.28L387.722 725.76" stroke="#E98BC7" stroke-opacity="0.27" stroke-width="3.5"/>
<path opacity="0.29" d="M387.721 665.28L453.342 725.76" stroke="#E98BC7" stroke-opacity="0.27" stroke-width="3.5"/>
<path opacity="0.29" d="M518.962 665.28L453.342 725.76" stroke="#E98BC7" stroke-opacity="0.27" stroke-width="3.5"/>
<path opacity="0.29" d="M584.582 665.28L518.962 725.76" stroke="#E98BC7" stroke-opacity="0.27" stroke-width="3.5"/>
<path opacity="0.29" d="M650.203 665.28L584.582 725.76" stroke="#E98BC7" stroke-opacity="0.27" stroke-width="3.5"/>
<path opacity="0.29" d="M715.823 665.28L650.203 725.76" stroke="#E98BC7" stroke-opacity="0.27" stroke-width="3.5"/>
<path opacity="0.29" d="M781.443 665.28L715.823 725.76" stroke="#E98BC7" stroke-opacity="0.27" stroke-width="3.5"/>
<path opacity="0.29" d="M781.443 665.28L847.063 725.76" stroke="#E98BC7" stroke-opacity="0.27" stroke-width="3.5"/>
<path opacity="0.29" d="M912.683 665.28L847.063 725.76" stroke="#E98BC7" stroke-opacity="0.27" stroke-width="3.5"/>
<path opacity="0.29" d="M978.304 665.28L912.684 725.76" stroke="#E98BC7" stroke-opacity="0.27" stroke-width="3.5"/>
<path opacity="0.29" d="M978.304 665.28L1043.92 725.76" stroke="#E98BC7" stroke-opacity="0.27" stroke-width="3.5"/>
<path opacity="0.29" d="M1109.54 665.28L1043.92 725.76" stroke="#E98BC7" stroke-opacity="0.27" stroke-width="3.5"/>
<path opacity="0.29" d="M1175.16 665.28L1109.54 725.76" stroke="#E98BC7" stroke-opacity="0.27" stroke-width="3.5"/>
<path opacity="0.29" d="M1175.16 665.28L1240.78 725.76" stroke="#E98BC7" stroke-opacity="0.27" stroke-width="3.5"/>
<path opacity="0.29" d="M1240.78 665.28L1306.4 725.76" stroke="#E98BC7" stroke-opacity="0.27" stroke-width="3.5"/>
<path opacity="0.29" d="M1372.03 665.28L1306.41 725.76" stroke="#E98BC7" stroke-opacity="0.27" stroke-width="3.5"/>
<path opacity="0.29" d="M1437.65 665.28L1372.03 725.76" stroke="#E98BC7" stroke-opacity="0.27" stroke-width="3.5"/>
<path opacity="0.29" d="M1503.27 665.28L1437.65 725.76" stroke="#E98BC7" stroke-opacity="0.27" stroke-width="3.5"/>
<path opacity="0.29" d="M1503.27 665.28L1568.89 725.76" stroke="#E98BC7" stroke-opacity="0.27" stroke-width="3.5"/>
<path opacity="0.29" d="M1568.89 665.28L1634.51 725.76" stroke="#E98BC7" stroke-opacity="0.27" stroke-width="3.5"/>
<path opacity="0.29" d="M1634.51 665.28L1700.13 725.76" stroke="#E98BC7" stroke-opacity="0.27" stroke-width="3.5"/>
<path opacity="0.29" d="M1700.13 665.28L1765.75 725.76" stroke="#E98BC7" stroke-opacity="0.27" stroke-width="3.5"/>
<path opacity="0.23" d="M-6 725.76L59.6203 786.24" stroke="#E98BC7" stroke-opacity="0.27" stroke-width="3.5"/>
<path opacity="0.23" d="M125.24 725.76L59.6202 786.24" stroke="#E98BC7" stroke-opacity="0.27" stroke-width="3.5"/>
<path opacity="0.23" d="M190.861 725.76L125.24 786.24" stroke="#E98BC7" stroke-opacity="0.27" stroke-width="3.5"/>
<path opacity="0.23" d="M190.861 725.76L256.481 786.24" stroke="#E98BC7" stroke-opacity="0.27" stroke-width="3.5"/>
<path opacity="0.23" d="M256.481 725.76L322.101 786.24" stroke="#E98BC7" stroke-opacity="0.27" stroke-width="3.5"/>
<path opacity="0.23" d="M387.722 725.76L322.101 786.24" stroke="#E98BC7" stroke-opacity="0.27" stroke-width="3.5"/>
<path opacity="0.23" d="M453.342 725.76L387.721 786.24" stroke="#E98BC7" stroke-opacity="0.27" stroke-width="3.5"/>
<path opacity="0.23" d="M453.342 725.76L518.962 786.24" stroke="#E98BC7" stroke-opacity="0.27" stroke-width="3.5"/>
<path opacity="0.23" d="M584.582 725.76L518.962 786.24" stroke="#E98BC7" stroke-opacity="0.27" stroke-width="3.5"/>
<path opacity="0.23" d="M584.582 725.76L650.203 786.24" stroke="#E98BC7" stroke-opacity="0.27" stroke-width="3.5"/>
<path opacity="0.23" d="M650.203 725.76L715.823 786.24" stroke="#E98BC7" stroke-opacity="0.27" stroke-width="3.5"/>
<path opacity="0.23" d="M781.443 725.76L715.823 786.24" stroke="#E98BC7" stroke-opacity="0.27" stroke-width="3.5"/>
<path opacity="0.23" d="M847.063 725.76L781.443 786.24" stroke="#E98BC7" stroke-opacity="0.27" stroke-width="3.5"/>
<path opacity="0.23" d="M847.063 725.76L912.683 786.24" stroke="#E98BC7" stroke-opacity="0.27" stroke-width="3.5"/>
<path opacity="0.23" d="M912.684 725.76L978.304 786.24" stroke="#E98BC7" stroke-opacity="0.27" stroke-width="3.5"/>
<path opacity="0.23" d="M1043.92 725.76L978.304 786.24" stroke="#E98BC7" stroke-opacity="0.27" stroke-width="3.5"/>
<path opacity="0.23" d="M1109.54 725.76L1043.92 786.24" stroke="#E98BC7" stroke-opacity="0.27" stroke-width="3.5"/>
<path opacity="0.23" d="M1175.16 725.76L1109.54 786.24" stroke="#E98BC7" stroke-opacity="0.27" stroke-width="3.5"/>
<path opacity="0.23" d="M1175.16 725.76L1240.78 786.24" stroke="#E98BC7" stroke-opacity="0.27" stroke-width="3.5"/>
<path opacity="0.23" d="M1240.78 725.76L1306.4 786.24" stroke="#E98BC7" stroke-opacity="0.27" stroke-width="3.5"/>
<path opacity="0.23" d="M1372.03 725.76L1306.41 786.24" stroke="#E98BC7" stroke-opacity="0.27" stroke-width="3.5"/>
<path opacity="0.23" d="M1372.03 725.76L1437.65 786.24" stroke="#E98BC7" stroke-opacity="0.27" stroke-width="3.5"/>
<path opacity="0.23" d="M1503.27 725.76L1437.65 786.24" stroke="#E98BC7" stroke-opacity="0.27" stroke-width="3.5"/>
<path opacity="0.23" d="M1568.89 725.76L1503.27 786.24" stroke="#E98BC7" stroke-opacity="0.27" stroke-width="3.5"/>
<path opacity="0.23" d="M1568.89 725.76L1634.51 786.24" stroke="#E98BC7" stroke-opacity="0.27" stroke-width="3.5"/>
<path opacity="0.23" d="M1700.13 725.76L1634.51 786.24" stroke="#E98BC7" stroke-opacity="0.27" stroke-width="3.5"/>
<path opacity="0.23" d="M1765.75 725.76L1700.13 786.24" stroke="#E98BC7" stroke-opacity="0.27" stroke-width="3.5"/>
<path opacity="0.17" d="M59.6203 786.24L-6 846.72" stroke="#E98BC7" stroke-opacity="0.27" stroke-width="3.5"/>
<path opacity="0.17" d="M125.24 786.24L59.6202 846.72" stroke="#E98BC7" stroke-opacity="0.27" stroke-width="3.5"/>
<path opacity="0.17" d="M190.861 786.24L125.24 846.72" stroke="#E98BC7" stroke-opacity="0.27" stroke-width="3.5"/>
<path opacity="0.17" d="M190.861 786.24L256.481 846.72" stroke="#E98BC7" stroke-opacity="0.27" stroke-width="3.5"/>
<path opacity="0.17" d="M256.481 786.24L322.101 846.72" stroke="#E98BC7" stroke-opacity="0.27" stroke-width="3.5"/>
<path opacity="0.17" d="M387.722 786.24L322.101 846.72" stroke="#E98BC7" stroke-opacity="0.27" stroke-width="3.5"/>
<path opacity="0.17" d="M453.342 786.24L387.721 846.72" stroke="#E98BC7" stroke-opacity="0.27" stroke-width="3.5"/>
<path opacity="0.17" d="M518.962 786.24L453.342 846.72" stroke="#E98BC7" stroke-opacity="0.27" stroke-width="3.5"/>
<path opacity="0.17" d="M518.962 786.24L584.582 846.72" stroke="#E98BC7" stroke-opacity="0.27" stroke-width="3.5"/>
<path opacity="0.17" d="M584.582 786.24L650.203 846.72" stroke="#E98BC7" stroke-opacity="0.27" stroke-width="3.5"/>
<path opacity="0.17" d="M650.203 786.24L715.823 846.72" stroke="#E98BC7" stroke-opacity="0.27" stroke-width="3.5"/>
<path opacity="0.17" d="M781.443 786.24L715.823 846.72" stroke="#E98BC7" stroke-opacity="0.27" stroke-width="3.5"/>
<path opacity="0.17" d="M781.443 786.24L847.063 846.72" stroke="#E98BC7" stroke-opacity="0.27" stroke-width="3.5"/>
<path opacity="0.17" d="M912.683 786.24L847.063 846.72" stroke="#E98BC7" stroke-opacity="0.27" stroke-width="3.5"/>
<path opacity="0.17" d="M978.304 786.24L912.684 846.72" stroke="#E98BC7" stroke-opacity="0.27" stroke-width="3.5"/>
<path opacity="0.17" d="M978.304 786.24L1043.92 846.72" stroke="#E98BC7" stroke-opacity="0.27" stroke-width="3.5"/>
<path opacity="0.17" d="M1043.92 786.24L1109.54 846.72" stroke="#E98BC7" stroke-opacity="0.27" stroke-width="3.5"/>
<path opacity="0.17" d="M1175.16 786.24L1109.54 846.72" stroke="#E98BC7" stroke-opacity="0.27" stroke-width="3.5"/>
<path opacity="0.17" d="M1175.16 786.24L1240.78 846.72" stroke="#E98BC7" stroke-opacity="0.27" stroke-width="3.5"/>
<path opacity="0.17" d="M1240.78 786.24L1306.4 846.72" stroke="#E98BC7" stroke-opacity="0.27" stroke-width="3.5"/>
<path opacity="0.17" d="M1306.41 786.24L1372.03 846.72" stroke="#E98BC7" stroke-opacity="0.27" stroke-width="3.5"/>
<path opacity="0.17" d="M1437.65 786.24L1372.03 846.72" stroke="#E98BC7" stroke-opacity="0.27" stroke-width="3.5"/>
<path opacity="0.17" d="M1437.65 786.24L1503.27 846.72" stroke="#E98BC7" stroke-opacity="0.27" stroke-width="3.5"/>
<path opacity="0.17" d="M1503.27 786.24L1568.89 846.72" stroke="#E98BC7" stroke-opacity="0.27" stroke-width="3.5"/>
<path opacity="0.17" d="M1634.51 786.24L1568.89 846.72" stroke="#E98BC7" stroke-opacity="0.27" stroke-width="3.5"/>
<path opacity="0.17" d="M1700.13 786.24L1634.51 846.72" stroke="#E98BC7" stroke-opacity="0.27" stroke-width="3.5"/>
<path opacity="0.17" d="M1700.13 786.24L1765.75 846.72" stroke="#E98BC7" stroke-opacity="0.27" stroke-width="3.5"/>
<path opacity="0.1" d="M59.6203 846.72L-6 907.2" stroke="#E98BC7" stroke-opacity="0.27" stroke-width="3.5"/>
<path opacity="0.1" d="M125.24 846.72L59.6202 907.2" stroke="#E98BC7" stroke-opacity="0.27" stroke-width="3.5"/>
<path opacity="0.1" d="M190.861 846.72L125.24 907.2" stroke="#E98BC7" stroke-opacity="0.27" stroke-width="3.5"/>
<path opacity="0.1" d="M190.861 846.72L256.481 907.2" stroke="#E98BC7" stroke-opacity="0.27" stroke-width="3.5"/>
<path opacity="0.1" d="M322.101 846.72L256.481 907.2" stroke="#E98BC7" stroke-opacity="0.27" stroke-width="3.5"/>
<path opacity="0.1" d="M322.101 846.72L387.722 907.2" stroke="#E98BC7" stroke-opacity="0.27" stroke-width="3.5"/>
<path opacity="0.1" d="M387.721 846.72L453.342 907.2" stroke="#E98BC7" stroke-opacity="0.27" stroke-width="3.5"/>
<path opacity="0.1" d="M453.342 846.72L518.962 907.2" stroke="#E98BC7" stroke-opacity="0.27" stroke-width="3.5"/>
<path opacity="0.1" d="M584.582 846.72L518.962 907.2" stroke="#E98BC7" stroke-opacity="0.27" stroke-width="3.5"/>
<path opacity="0.1" d="M584.582 846.72L650.203 907.2" stroke="#E98BC7" stroke-opacity="0.27" stroke-width="3.5"/>
<path opacity="0.1" d="M650.203 846.72L715.823 907.2" stroke="#E98BC7" stroke-opacity="0.27" stroke-width="3.5"/>
<path opacity="0.1" d="M781.443 846.72L715.823 907.2" stroke="#E98BC7" stroke-opacity="0.27" stroke-width="3.5"/>
<path opacity="0.1" d="M781.443 846.72L847.063 907.2" stroke="#E98BC7" stroke-opacity="0.27" stroke-width="3.5"/>
<path opacity="0.1" d="M912.683 846.72L847.063 907.2" stroke="#E98BC7" stroke-opacity="0.27" stroke-width="3.5"/>
<path opacity="0.1" d="M978.304 846.72L912.684 907.2" stroke="#E98BC7" stroke-opacity="0.27" stroke-width="3.5"/>
<path opacity="0.1" d="M1043.92 846.72L978.304 907.2" stroke="#E98BC7" stroke-opacity="0.27" stroke-width="3.5"/>
<path opacity="0.1" d="M1109.54 846.72L1043.92 907.2" stroke="#E98BC7" stroke-opacity="0.27" stroke-width="3.5"/>
<path opacity="0.1" d="M1109.54 846.72L1175.16 907.2" stroke="#E98BC7" stroke-opacity="0.27" stroke-width="3.5"/>
<path opacity="0.1" d="M1240.78 846.72L1175.16 907.2" stroke="#E98BC7" stroke-opacity="0.27" stroke-width="3.5"/>
<path opacity="0.1" d="M1306.4 846.72L1240.78 907.2" stroke="#E98BC7" stroke-opacity="0.27" stroke-width="3.5"/>
<path opacity="0.1" d="M1372.03 846.72L1306.41 907.2" stroke="#E98BC7" stroke-opacity="0.27" stroke-width="3.5"/>
<path opacity="0.1" d="M1372.03 846.72L1437.65 907.2" stroke="#E98BC7" stroke-opacity="0.27" stroke-width="3.5"/>
<path opacity="0.1" d="M1503.27 846.72L1437.65 907.2" stroke="#E98BC7" stroke-opacity="0.27" stroke-width="3.5"/>
<path opacity="0.1" d="M1568.89 846.72L1503.27 907.2" stroke="#E98BC7" stroke-opacity="0.27" stroke-width="3.5"/>
<path opacity="0.1" d="M1634.51 846.72L1568.89 907.2" stroke="#E98BC7" stroke-opacity="0.27" stroke-width="3.5"/>
<path opacity="0.1" d="M1634.51 846.72L1700.13 907.2" stroke="#E98BC7" stroke-opacity="0.27" stroke-width="3.5"/>
<path opacity="0.1" d="M1765.75 846.72L1700.13 907.2" stroke="#E98BC7" stroke-opacity="0.27" stroke-width="3.5"/>
</svg>
